<svg version="1.0" xmlns="http://www.w3.org/2000/svg" width="600.000000pt" height="359.000000pt" viewBox="0 0 600.000000 359.000000" preserveAspectRatio="xMidYMid meet" style="width: 757.76px; height: auto;">
  <style>
    .logo-path {
      fill: #000000;
    }
    @media (prefers-color-scheme: dark) {
      .logo-path {
        fill: #ffffff;
      }
    }
  </style>
  <g transform="translate(0.000000,359.000000) scale(0.100000,-0.100000)" stroke="none">
    <path class="logo-path" d="M3415 2785 c-121 -29 -274 -65 -340 -80 l-119 -28 74 -67 73 -67 -24 -30 c-47 -59 -664 -749 -731 -819 l-69 -72 192 -116 c105 -64 195 -118 199 -119 5 -1 63 61 131 138 67 77 191 217 274 310 83 94 195 221 249 282 l99 113 36 -33 c20 -18 51 -48 69 -66 18 -18 35 -32 37 -30 2 2 15 87 30 189 28 198 71 477 81 523 8 37 4 36 -261 -28z" />
    <path class="logo-path" d="M2485 2684 c-99 -74 -190 -142 -203 -152 l-23 -17 3 -389 3 -390 150 170 c82 93 176 197 207 231 l58 62 0 311 c0 170 -3 310 -7 309 -5 0 -89 -61 -188 -135z" />
    <path class="logo-path" d="M2924 1524 c-175 -199 -168 -190 -152 -212 7 -11 101 -128 208 -261 l195 -241 298 0 c236 0 297 3 291 13 -5 6 -118 145 -253 307 -134 162 -289 349 -344 415 -55 66 -103 121 -107 123 -4 1 -65 -63 -136 -144z" />
    <path class="logo-path" d="M2262 1294 l3 -227 190 -119 c105 -65 198 -123 208 -129 16 -9 17 4 17 218 l0 228 -203 128 c-112 70 -207 127 -211 127 -3 0 -5 -102 -4 -226z" />
  </g>
</svg>